# xmcd CD database file
#
# Track frame offsets:
#	150
#	18672
#	36043
#	49275
#	62938
#	79782
#	95870
#	110813
#	124567
#	141010
#	158275
#	175477
#	190273
#	207920
#	222772
#	235701
#	253821
#	267079
#	283045
#	300055
#
# Disc length: 4178 seconds
#
# Revision: 2
# Processed by: cddbd v1.5.2PL0 Copyright (c) Steve Scherf et al.
# Submitted via: CDex 1.70beta2
#
DISCID=1c105014
DTITLE=Crystal Gayle - Miss The Mississippi/These Days 
DYEAR=1979
DGENRE=Country
TTITLE0=Half The Way
TTITLE1=The Other Side Of Me
TTITLE2=Room For One More
TTITLE3=Don't Go My Love
TTITLE4=Dancing The Night Away
TTITLE5=It's Like We Never Said Goodbye
TTITLE6=The Blue Side
TTITLE7=A Little Bit Of The Rain
TTITLE8=Danger Zone
TTITLE9=Miss The Mississippi And You
TTITLE10=Too Many Lovers
TTITLE11=If You Ever Change Your Mind
TTITLE12=Ain't No Love In The Heart Of The City
TTITLE13=Same Old Story (Same Old Song)
TTITLE14=Help Yourselves To Each Other
TTITLE15=Take It Easy
TTITLE16=I Just Can't Leave Your Love Alone
TTITLE17=You've Almost Got Me To Believin'
TTITLE18=Lover Man (aka Trouble Man)
TTITLE19=What A Little Moonlight Can Do
EXTD=YEAR: 1979
EXTT0=
EXTT1=
EXTT2=
EXTT3=
EXTT4=
EXTT5=
EXTT6=
EXTT7=
EXTT8=
EXTT9=
EXTT10=
EXTT11=
EXTT12=
EXTT13=
EXTT14=
EXTT15=
EXTT16=
EXTT17=
EXTT18=
EXTT19=
PLAYORDER=
